<svg width="140" height="22" viewBox="0 0 140 22" fill="none" xmlns="http://www.w3.org/2000/svg">
<path d="M7.75586 4.03418L3.50195 17H0.0751953L5.88672 1.35938H8.06738L7.75586 4.03418ZM11.29 17L7.02539 4.03418L6.68164 1.35938H8.88379L14.7275 17H11.29ZM11.0967 11.1777V13.7021H2.83594V11.1777H11.0967ZM18.7344 7.7832V17H15.6299V5.37695H18.541L18.7344 7.7832ZM18.3047 10.7803H17.4453C17.4453 9.97103 17.542 9.22624 17.7354 8.5459C17.9359 7.8584 18.2259 7.264 18.6055 6.7627C18.9922 6.25423 19.4684 5.86035 20.0342 5.58105C20.5999 5.30176 21.2552 5.16211 22 5.16211C22.5156 5.16211 22.9883 5.24089 23.418 5.39844C23.8477 5.54883 24.2165 5.78874 24.5244 6.11816C24.8395 6.44043 25.083 6.86296 25.2549 7.38574C25.4268 7.90137 25.5127 8.52083 25.5127 9.24414V17H22.4189V9.58789C22.4189 9.05794 22.3473 8.64974 22.2041 8.36328C22.0609 8.07682 21.8568 7.8763 21.5918 7.76172C21.334 7.64714 21.0225 7.58984 20.6572 7.58984C20.2562 7.58984 19.9053 7.6722 19.6045 7.83691C19.3109 8.00163 19.0674 8.23079 18.874 8.52441C18.6807 8.81087 18.5374 9.14746 18.4443 9.53418C18.3512 9.9209 18.3047 10.3363 18.3047 10.7803ZM25.2227 10.4258L24.1162 10.5654C24.1162 9.80632 24.2093 9.10091 24.3955 8.44922C24.5889 7.79753 24.8717 7.22461 25.2441 6.73047C25.6237 6.23633 26.0928 5.85319 26.6514 5.58105C27.21 5.30176 27.8545 5.16211 28.585 5.16211C29.1436 5.16211 29.652 5.24447 30.1104 5.40918C30.5687 5.56673 30.959 5.82096 31.2812 6.17188C31.6107 6.51562 31.8613 6.9668 32.0332 7.52539C32.2122 8.08398 32.3018 8.7679 32.3018 9.57715V17H29.1973V9.57715C29.1973 9.04004 29.1257 8.63184 28.9824 8.35254C28.8464 8.06608 28.6458 7.86914 28.3809 7.76172C28.123 7.64714 27.8151 7.58984 27.457 7.58984C27.0846 7.58984 26.7588 7.66504 26.4795 7.81543C26.2002 7.95866 25.9674 8.15918 25.7812 8.41699C25.5951 8.6748 25.4554 8.97559 25.3623 9.31934C25.2692 9.65592 25.2227 10.0247 25.2227 10.4258ZM37.9629 5.37695V17H34.8584V5.37695H37.9629ZM34.665 2.34766C34.665 1.89648 34.8226 1.52409 35.1377 1.23047C35.4528 0.936849 35.8753 0.790039 36.4053 0.790039C36.9281 0.790039 37.347 0.936849 37.6621 1.23047C37.9844 1.52409 38.1455 1.89648 38.1455 2.34766C38.1455 2.79883 37.9844 3.17122 37.6621 3.46484C37.347 3.75846 36.9281 3.90527 36.4053 3.90527C35.8753 3.90527 35.4528 3.75846 35.1377 3.46484C34.8226 3.17122 34.665 2.79883 34.665 2.34766ZM47.8779 5.37695H50.6816V16.6133C50.6816 17.6732 50.4453 18.5719 49.9727 19.3096C49.5072 20.0544 48.8555 20.6165 48.0176 20.9961C47.1797 21.3828 46.2057 21.5762 45.0957 21.5762C44.6087 21.5762 44.0931 21.5117 43.5488 21.3828C43.0117 21.2539 42.4961 21.0534 42.002 20.7812C41.515 20.5091 41.1068 20.1654 40.7773 19.75L42.1416 17.9238C42.4997 18.3392 42.915 18.6615 43.3877 18.8906C43.8604 19.127 44.3831 19.2451 44.9561 19.2451C45.5146 19.2451 45.9873 19.1413 46.374 18.9336C46.7607 18.7331 47.0579 18.4359 47.2656 18.042C47.4733 17.6553 47.5771 17.1862 47.5771 16.6348V8.0625L47.8779 5.37695ZM40.0576 11.3281V11.1025C40.0576 10.2145 40.165 9.40885 40.3799 8.68555C40.6019 7.95508 40.9134 7.32845 41.3145 6.80566C41.7227 6.28288 42.2168 5.87826 42.7969 5.5918C43.377 5.30534 44.0322 5.16211 44.7627 5.16211C45.5361 5.16211 46.1842 5.30534 46.707 5.5918C47.2298 5.87826 47.6595 6.28646 47.9961 6.81641C48.3327 7.33919 48.5941 7.95866 48.7803 8.6748C48.9736 9.38379 49.124 10.1608 49.2314 11.0059V11.5C49.124 12.3092 48.9629 13.0612 48.748 13.7559C48.5332 14.4505 48.2503 15.0592 47.8994 15.582C47.5485 16.0977 47.1117 16.4987 46.5889 16.7852C46.0732 17.0716 45.4574 17.2148 44.7412 17.2148C44.0251 17.2148 43.377 17.068 42.7969 16.7744C42.224 16.4808 41.7334 16.069 41.3252 15.5391C40.917 15.0091 40.6019 14.3861 40.3799 13.6699C40.165 12.9538 40.0576 12.1732 40.0576 11.3281ZM43.1514 11.1025V11.3281C43.1514 11.8079 43.1979 12.2555 43.291 12.6709C43.3841 13.0863 43.5273 13.4551 43.7207 13.7773C43.9212 14.0924 44.1683 14.3395 44.4619 14.5186C44.7627 14.6904 45.1172 14.7764 45.5254 14.7764C46.0911 14.7764 46.5531 14.6582 46.9111 14.4219C47.2692 14.1784 47.5378 13.8454 47.7168 13.4229C47.8958 13.0003 47.9997 12.5133 48.0283 11.9619V10.5547C48.014 10.1035 47.9531 9.69889 47.8457 9.34082C47.7383 8.97559 47.5879 8.66406 47.3945 8.40625C47.2012 8.14844 46.9505 7.94792 46.6426 7.80469C46.3346 7.66146 45.9694 7.58984 45.5469 7.58984C45.1387 7.58984 44.7842 7.68294 44.4834 7.86914C44.1898 8.04818 43.9427 8.29525 43.7422 8.61035C43.5488 8.92546 43.402 9.29785 43.3018 9.72754C43.2015 10.1501 43.1514 10.6084 43.1514 11.1025ZM52.5938 11.3066V11.0811C52.5938 10.2288 52.7155 9.44466 52.959 8.72852C53.2025 8.00521 53.557 7.37858 54.0225 6.84863C54.488 6.31868 55.0609 5.9069 55.7412 5.61328C56.4215 5.3125 57.2021 5.16211 58.083 5.16211C58.9639 5.16211 59.748 5.3125 60.4355 5.61328C61.123 5.9069 61.6995 6.31868 62.165 6.84863C62.6377 7.37858 62.9958 8.00521 63.2393 8.72852C63.4827 9.44466 63.6045 10.2288 63.6045 11.0811V11.3066C63.6045 12.1517 63.4827 12.9359 63.2393 13.6592C62.9958 14.3753 62.6377 15.002 62.165 15.5391C61.6995 16.069 61.1266 16.4808 60.4463 16.7744C59.766 17.068 58.9854 17.2148 58.1045 17.2148C57.2236 17.2148 56.4395 17.068 55.752 16.7744C55.0716 16.4808 54.4951 16.069 54.0225 15.5391C53.557 15.002 53.2025 14.3753 52.959 13.6592C52.7155 12.9359 52.5938 12.1517 52.5938 11.3066ZM55.6875 11.0811V11.3066C55.6875 11.7936 55.7305 12.2484 55.8164 12.6709C55.9023 13.0934 56.0384 13.4658 56.2246 13.7881C56.418 14.1032 56.6686 14.3503 56.9766 14.5293C57.2845 14.7083 57.6605 14.7979 58.1045 14.7979C58.5342 14.7979 58.903 14.7083 59.2109 14.5293C59.5189 14.3503 59.766 14.1032 59.9521 13.7881C60.1383 13.4658 60.2744 13.0934 60.3604 12.6709C60.4535 12.2484 60.5 11.7936 60.5 11.3066V11.0811C60.5 10.6084 60.4535 10.1644 60.3604 9.74902C60.2744 9.3265 60.1348 8.9541 59.9414 8.63184C59.7552 8.30241 59.5081 8.0446 59.2002 7.8584C58.8923 7.6722 58.5199 7.5791 58.083 7.5791C57.6462 7.5791 57.2738 7.6722 56.9658 7.8584C56.665 8.0446 56.418 8.30241 56.2246 8.63184C56.0384 8.9541 55.9023 9.3265 55.8164 9.74902C55.7305 10.1644 55.6875 10.6084 55.6875 11.0811Z" fill="black"/>
<path d="M73.8418 12.9072C73.8418 12.6279 73.7988 12.3773 73.7129 12.1553C73.6341 11.9261 73.4837 11.7184 73.2617 11.5322C73.0397 11.3389 72.7282 11.1491 72.3271 10.9629C71.9261 10.7767 71.4069 10.5833 70.7695 10.3828C70.0605 10.1536 69.3874 9.89583 68.75 9.60938C68.1198 9.32292 67.5612 8.98991 67.0742 8.61035C66.5944 8.22363 66.2148 7.77604 65.9355 7.26758C65.6634 6.75911 65.5273 6.16829 65.5273 5.49512C65.5273 4.84342 65.6706 4.2526 65.957 3.72266C66.2435 3.18555 66.6445 2.72721 67.1602 2.34766C67.6758 1.96094 68.2845 1.66374 68.9863 1.45605C69.6953 1.24837 70.4723 1.14453 71.3174 1.14453C72.4704 1.14453 73.4766 1.35221 74.3359 1.76758C75.1953 2.18294 75.8613 2.75228 76.334 3.47559C76.8138 4.19889 77.0537 5.02604 77.0537 5.95703H73.8525C73.8525 5.4987 73.7559 5.09766 73.5625 4.75391C73.3763 4.40299 73.0898 4.12728 72.7031 3.92676C72.3236 3.72624 71.8438 3.62598 71.2637 3.62598C70.7051 3.62598 70.2396 3.71191 69.8672 3.88379C69.4948 4.0485 69.2155 4.27409 69.0293 4.56055C68.8431 4.83984 68.75 5.15495 68.75 5.50586C68.75 5.77083 68.8145 6.01074 68.9434 6.22559C69.0794 6.44043 69.2799 6.64095 69.5449 6.82715C69.8099 7.01335 70.1357 7.1888 70.5225 7.35352C70.9092 7.51823 71.3568 7.67936 71.8652 7.83691C72.7174 8.09473 73.4658 8.38477 74.1104 8.70703C74.762 9.0293 75.3063 9.39095 75.7432 9.79199C76.18 10.193 76.5094 10.6478 76.7314 11.1562C76.9535 11.6647 77.0645 12.2412 77.0645 12.8857C77.0645 13.5661 76.932 14.1748 76.667 14.7119C76.402 15.249 76.0189 15.7038 75.5176 16.0762C75.0163 16.4486 74.4183 16.7314 73.7236 16.9248C73.029 17.1182 72.252 17.2148 71.3926 17.2148C70.6191 17.2148 69.8564 17.1146 69.1045 16.9141C68.3525 16.7064 67.6686 16.3949 67.0527 15.9795C66.444 15.5641 65.957 15.0342 65.5918 14.3896C65.2266 13.7451 65.0439 12.9824 65.0439 12.1016H68.2773C68.2773 12.5885 68.3525 13.0003 68.5029 13.3369C68.6533 13.6735 68.8646 13.9456 69.1367 14.1533C69.416 14.361 69.7454 14.5114 70.125 14.6045C70.5117 14.6976 70.9342 14.7441 71.3926 14.7441C71.9512 14.7441 72.4095 14.6654 72.7676 14.5078C73.1328 14.3503 73.4014 14.1318 73.5732 13.8525C73.7523 13.5732 73.8418 13.2581 73.8418 12.9072ZM84.4121 17.2148C83.5098 17.2148 82.7005 17.0716 81.9844 16.7852C81.2682 16.4915 80.6595 16.0869 80.1582 15.5713C79.6641 15.0557 79.2845 14.4577 79.0195 13.7773C78.7546 13.0898 78.6221 12.3594 78.6221 11.5859V11.1562C78.6221 10.2754 78.7474 9.46973 78.998 8.73926C79.2487 8.00879 79.6068 7.375 80.0723 6.83789C80.5449 6.30078 81.1178 5.889 81.791 5.60254C82.4642 5.30892 83.2233 5.16211 84.0684 5.16211C84.8919 5.16211 85.6224 5.29818 86.2598 5.57031C86.8971 5.84245 87.4307 6.22917 87.8604 6.73047C88.2972 7.23177 88.6266 7.83333 88.8486 8.53516C89.0706 9.22982 89.1816 10.0033 89.1816 10.8555V12.1445H79.9434V10.082H86.1416V9.8457C86.1416 9.41602 86.0628 9.03288 85.9053 8.69629C85.7549 8.35254 85.5257 8.0804 85.2178 7.87988C84.9098 7.67936 84.516 7.5791 84.0361 7.5791C83.6279 7.5791 83.277 7.66862 82.9834 7.84766C82.6898 8.02669 82.4499 8.27734 82.2637 8.59961C82.0846 8.92188 81.9486 9.30143 81.8555 9.73828C81.7695 10.168 81.7266 10.6406 81.7266 11.1562V11.5859C81.7266 12.0514 81.791 12.4811 81.9199 12.875C82.056 13.2689 82.2458 13.609 82.4893 13.8955C82.7399 14.182 83.0407 14.404 83.3916 14.5615C83.7497 14.7191 84.1543 14.7979 84.6055 14.7979C85.1641 14.7979 85.6833 14.6904 86.1631 14.4756C86.6501 14.2536 87.069 13.9206 87.4199 13.4766L88.9238 15.1094C88.6803 15.4603 88.3473 15.7969 87.9248 16.1191C87.5094 16.4414 87.0081 16.7064 86.4209 16.9141C85.8337 17.1146 85.1641 17.2148 84.4121 17.2148ZM95.7451 14.7979C96.1247 14.7979 96.4613 14.7262 96.7549 14.583C97.0485 14.4326 97.2777 14.2249 97.4424 13.96C97.6143 13.6878 97.7038 13.3691 97.7109 13.0039H100.622C100.615 13.8203 100.396 14.5472 99.9668 15.1846C99.5371 15.8148 98.9606 16.3125 98.2373 16.6777C97.514 17.0358 96.7048 17.2148 95.8096 17.2148C94.9072 17.2148 94.1195 17.0645 93.4463 16.7637C92.7803 16.4629 92.2253 16.0475 91.7812 15.5176C91.3372 14.9805 91.0042 14.3574 90.7822 13.6484C90.5602 12.9323 90.4492 12.166 90.4492 11.3496V11.0381C90.4492 10.2145 90.5602 9.44824 90.7822 8.73926C91.0042 8.02311 91.3372 7.40007 91.7812 6.87012C92.2253 6.33301 92.7803 5.91406 93.4463 5.61328C94.1123 5.3125 94.8929 5.16211 95.7881 5.16211C96.7406 5.16211 97.5749 5.34473 98.291 5.70996C99.0143 6.0752 99.5801 6.59798 99.9883 7.27832C100.404 7.9515 100.615 8.75 100.622 9.67383H97.7109C97.7038 9.28711 97.6214 8.9362 97.4639 8.62109C97.3135 8.30599 97.0915 8.05534 96.7979 7.86914C96.5114 7.67578 96.1569 7.5791 95.7344 7.5791C95.2832 7.5791 94.9144 7.67578 94.6279 7.86914C94.3415 8.05534 94.1195 8.31315 93.9619 8.64258C93.8044 8.96484 93.6934 9.33366 93.6289 9.74902C93.5716 10.1572 93.543 10.5869 93.543 11.0381V11.3496C93.543 11.8008 93.5716 12.234 93.6289 12.6494C93.6862 13.0648 93.7936 13.4336 93.9512 13.7559C94.1159 14.0781 94.3415 14.3324 94.6279 14.5186C94.9144 14.7048 95.2868 14.7979 95.7451 14.7979ZM105.51 7.91211V17H102.416V5.37695H105.327L105.51 7.91211ZM109.012 5.30176L108.958 8.16992C108.808 8.14844 108.625 8.13053 108.41 8.11621C108.202 8.09473 108.013 8.08398 107.841 8.08398C107.404 8.08398 107.024 8.14128 106.702 8.25586C106.387 8.36328 106.122 8.52441 105.907 8.73926C105.7 8.9541 105.542 9.21549 105.435 9.52344C105.334 9.83138 105.277 10.1823 105.263 10.5762L104.64 10.3828C104.64 9.63086 104.715 8.93978 104.865 8.30957C105.016 7.6722 105.234 7.11719 105.521 6.64453C105.814 6.17188 106.172 5.80664 106.595 5.54883C107.017 5.29102 107.501 5.16211 108.045 5.16211C108.217 5.16211 108.392 5.17643 108.571 5.20508C108.75 5.22656 108.897 5.25879 109.012 5.30176ZM115.607 17.2148C114.705 17.2148 113.896 17.0716 113.18 16.7852C112.464 16.4915 111.855 16.0869 111.354 15.5713C110.859 15.0557 110.48 14.4577 110.215 13.7773C109.95 13.0898 109.817 12.3594 109.817 11.5859V11.1562C109.817 10.2754 109.943 9.46973 110.193 8.73926C110.444 8.00879 110.802 7.375 111.268 6.83789C111.74 6.30078 112.313 5.889 112.986 5.60254C113.66 5.30892 114.419 5.16211 115.264 5.16211C116.087 5.16211 116.818 5.29818 117.455 5.57031C118.092 5.84245 118.626 6.22917 119.056 6.73047C119.493 7.23177 119.822 7.83333 120.044 8.53516C120.266 9.22982 120.377 10.0033 120.377 10.8555V12.1445H111.139V10.082H117.337V9.8457C117.337 9.41602 117.258 9.03288 117.101 8.69629C116.95 8.35254 116.721 8.0804 116.413 7.87988C116.105 7.67936 115.711 7.5791 115.231 7.5791C114.823 7.5791 114.472 7.66862 114.179 7.84766C113.885 8.02669 113.645 8.27734 113.459 8.59961C113.28 8.92188 113.144 9.30143 113.051 9.73828C112.965 10.168 112.922 10.6406 112.922 11.1562V11.5859C112.922 12.0514 112.986 12.4811 113.115 12.875C113.251 13.2689 113.441 13.609 113.685 13.8955C113.935 14.182 114.236 14.404 114.587 14.5615C114.945 14.7191 115.35 14.7979 115.801 14.7979C116.359 14.7979 116.879 14.6904 117.358 14.4756C117.845 14.2536 118.264 13.9206 118.615 13.4766L120.119 15.1094C119.876 15.4603 119.543 15.7969 119.12 16.1191C118.705 16.4414 118.203 16.7064 117.616 16.9141C117.029 17.1146 116.359 17.2148 115.607 17.2148ZM127.832 5.37695V7.56836H121.064V5.37695H127.832ZM122.74 2.50879H125.834V13.498C125.834 13.8346 125.877 14.0924 125.963 14.2715C126.056 14.4505 126.192 14.5758 126.371 14.6475C126.55 14.7119 126.776 14.7441 127.048 14.7441C127.241 14.7441 127.413 14.737 127.563 14.7227C127.721 14.7012 127.854 14.6797 127.961 14.6582L127.972 16.9355C127.707 17.0215 127.42 17.0895 127.112 17.1396C126.804 17.1898 126.464 17.2148 126.092 17.2148C125.411 17.2148 124.817 17.1038 124.309 16.8818C123.807 16.6527 123.421 16.2874 123.148 15.7861C122.876 15.2848 122.74 14.626 122.74 13.8096V2.50879ZM128.82 11.3066V11.0811C128.82 10.2288 128.942 9.44466 129.186 8.72852C129.429 8.00521 129.784 7.37858 130.249 6.84863C130.715 6.31868 131.287 5.9069 131.968 5.61328C132.648 5.3125 133.429 5.16211 134.31 5.16211C135.19 5.16211 135.975 5.3125 136.662 5.61328C137.35 5.9069 137.926 6.31868 138.392 6.84863C138.864 7.37858 139.222 8.00521 139.466 8.72852C139.709 9.44466 139.831 10.2288 139.831 11.0811V11.3066C139.831 12.1517 139.709 12.9359 139.466 13.6592C139.222 14.3753 138.864 15.002 138.392 15.5391C137.926 16.069 137.353 16.4808 136.673 16.7744C135.993 17.068 135.212 17.2148 134.331 17.2148C133.45 17.2148 132.666 17.068 131.979 16.7744C131.298 16.4808 130.722 16.069 130.249 15.5391C129.784 15.002 129.429 14.3753 129.186 13.6592C128.942 12.9359 128.82 12.1517 128.82 11.3066ZM131.914 11.0811V11.3066C131.914 11.7936 131.957 12.2484 132.043 12.6709C132.129 13.0934 132.265 13.4658 132.451 13.7881C132.645 14.1032 132.895 14.3503 133.203 14.5293C133.511 14.7083 133.887 14.7979 134.331 14.7979C134.761 14.7979 135.13 14.7083 135.438 14.5293C135.745 14.3503 135.993 14.1032 136.179 13.7881C136.365 13.4658 136.501 13.0934 136.587 12.6709C136.68 12.2484 136.727 11.7936 136.727 11.3066V11.0811C136.727 10.6084 136.68 10.1644 136.587 9.74902C136.501 9.3265 136.361 8.9541 136.168 8.63184C135.982 8.30241 135.735 8.0446 135.427 7.8584C135.119 7.6722 134.746 7.5791 134.31 7.5791C133.873 7.5791 133.5 7.6722 133.192 7.8584C132.892 8.0446 132.645 8.30241 132.451 8.63184C132.265 8.9541 132.129 9.3265 132.043 9.74902C131.957 10.1644 131.914 10.6084 131.914 11.0811Z" fill="#00873E"/>
</svg>
